<svg xmlns="http://www.w3.org/2000/svg" xmlns:xlink="http://www.w3.org/1999/xlink" version="1.1" x="0px" y="0px" viewBox="0 0 100 100" enable-background="new 0 0 100 100" xml:space="preserve"><g><path d="M75.615,76.972H53.301V35.589l-0.731,0.381c-1.64,0.854-3.604,0.854-5.241,0l-0.731-0.381v41.382H24.283   c-0.705,0-1.278,0.573-1.278,1.277c0,0.705,0.573,1.278,1.278,1.278h51.332c0.705,0,1.278-0.573,1.278-1.278   C76.893,77.545,76.319,76.972,75.615,76.972z M47.597,37.186c1.5,0.569,3.203,0.569,4.704,0v39.786h-4.704V37.186z M75.615,78.527   H24.283c-0.15,0-0.278-0.127-0.278-0.278c0-0.153,0.125-0.277,0.278-0.277h22.314h6.704h22.314c0.15,0,0.278,0.127,0.278,0.277   S75.765,78.527,75.615,78.527z"></path><path d="M77.748,30.898c-0.021-0.603-0.493-1.088-1.078-1.088H60.029c-0.073-5.159-4.564-9.336-10.08-9.336   c-5.516,0-10.006,4.177-10.08,9.336H23.228c-0.599,0-1.086,0.505-1.086,1.126c0,0.026,0.013,0.049,0.015,0.074L8.587,47.867h-0.26   v0.5c0,6.399,6.466,11.604,14.413,11.604s14.413-5.206,14.413-11.604v-0.5h-0.26L24.17,32.063h20.613   c0.518,2.378,2.635,4.166,5.166,4.166s4.648-1.788,5.166-4.166h20.711L63.103,47.867h-0.26v0.5c0,6.399,6.466,11.604,14.414,11.604   c7.947,0,14.413-5.206,14.413-11.604v-0.5h-0.26L77.748,30.898z M49.949,21.473c4.965,0,9.006,3.729,9.08,8.336h-1.471   c-0.022-0.043-0.044-0.086-0.077-0.12c-0.021-0.021-0.048-0.031-0.072-0.047c-0.082-0.06-0.178-0.103-0.288-0.103   c-0.186,0-0.348,0.113-0.434,0.27h-1.571c-0.406-1.862-1.8-3.34-3.599-3.903l-1.567-3.133l-1.566,3.133   c-1.799,0.563-3.193,2.041-3.599,3.903h-1.575c-0.022-0.043-0.044-0.086-0.078-0.12c-0.19-0.19-0.52-0.19-0.71,0   c-0.034,0.034-0.056,0.077-0.078,0.12h-1.473C40.943,25.202,44.984,21.473,49.949,21.473z M50.282,25.677   c-0.112-0.007-0.219-0.034-0.334-0.034c-0.114,0-0.221,0.027-0.333,0.034l0.333-0.667L50.282,25.677z M22.74,58.971   c-7.184,0-13.067-4.489-13.398-10.104h26.797C35.807,54.482,29.923,58.971,22.74,58.971z M9.871,47.867l12.845-15.956   c0.035,0.02,0.063,0.049,0.101,0.065l12.792,15.891H9.871z M44.656,31.063H23.365l-0.182-0.226   c0.015-0.014,0.031-0.027,0.045-0.027h21.428V31.063z M49.949,35.229c-2.367,0-4.292-1.926-4.292-4.292   c0-2.367,1.926-4.293,4.292-4.293c2.367,0,4.293,1.926,4.293,4.293C54.242,33.303,52.316,35.229,49.949,35.229z M55.242,31.063   V30.81H76.67c0.031,0,0.07,0.043,0.079,0.106l-0.118,0.147H55.242z M77.256,31.881l12.869,15.986H64.387L77.256,31.881z    M77.256,58.971c-7.184,0-13.067-4.489-13.399-10.104h26.797C90.323,54.482,84.439,58.971,77.256,58.971z"></path><path d="M56.37,27.56c0.08,0,0.16-0.02,0.24-0.06c0.16-0.09,0.26-0.26,0.26-0.44c0-0.08-0.02-0.16-0.06-0.24   c-0.13-0.24-0.43-0.33-0.67-0.2c-0.17,0.09-0.27,0.26-0.27,0.44c0,0.08,0.02,0.16,0.06,0.24C56.02,27.46,56.19,27.56,56.37,27.56z"></path><path d="M48.42,24c0.03,0,0.07,0,0.1,0c0.24-0.05,0.4-0.26,0.4-0.49c0-0.04,0-0.07-0.01-0.1c-0.05-0.27-0.32-0.45-0.59-0.4v0.01   c-0.23,0.04-0.4,0.25-0.4,0.48c0,0.04,0.01,0.07,0.01,0.1C47.98,23.84,48.19,24,48.42,24z"></path><path d="M51.41,24c0.03,0.01,0.06,0.01,0.1,0.01c0.23,0,0.44-0.16,0.49-0.4c0.01-0.03,0.01-0.06,0.01-0.1   c0-0.23-0.16-0.44-0.4-0.49c-0.27-0.05-0.54,0.12-0.59,0.39c-0.01,0.04-0.01,0.07-0.01,0.1C51.01,23.75,51.17,23.95,51.41,24z"></path><path d="M54.33,25.25c0.16,0,0.31-0.07,0.41-0.21c0.07-0.09,0.1-0.2,0.09-0.3c0-0.15-0.07-0.3-0.2-0.4   c-0.23-0.16-0.54-0.11-0.7,0.12c-0.07,0.09-0.1,0.19-0.1,0.3c0.01,0.15,0.08,0.3,0.21,0.39C54.13,25.22,54.23,25.25,54.33,25.25z"></path><path d="M45.59,25.23c0.1,0,0.2-0.03,0.29-0.09c0.13-0.1,0.21-0.25,0.21-0.4c0-0.1-0.03-0.21-0.09-0.3   c-0.16-0.23-0.48-0.28-0.7-0.12c-0.13,0.1-0.21,0.25-0.21,0.4c0,0.1,0.03,0.21,0.09,0.3C45.28,25.16,45.43,25.23,45.59,25.23z"></path><path d="M43.3,27.47c0.08,0.04,0.16,0.06,0.24,0.06c0.18,0,0.35-0.1,0.44-0.26c0.04-0.08,0.06-0.16,0.06-0.24   c0-0.18-0.09-0.35-0.26-0.44c-0.24-0.13-0.55-0.04-0.68,0.2c-0.04,0.08-0.06,0.16-0.06,0.24C43.04,27.21,43.14,27.38,43.3,27.47z"></path></g></svg>