<svg xmlns="http://www.w3.org/2000/svg" xmlns:xlink="http://www.w3.org/1999/xlink" version="1.1" x="0px" y="0px" viewBox="0 0 100 100" enable-background="new 0 0 100 100" xml:space="preserve"><rect x="5.001" y="5" fill="none" width="89.999" height="90.001"></rect><g><path d="M62.088,29.746c-0.58-1.243-1.127-2.417-1.59-3.591c-1.572-3.999-1.898-10.137-1.963-12.176   c0.021-0.068,0.031-0.138,0.031-0.211v-0.323c0.004-0.046,0.01-0.095,0.01-0.143v-1.638c0.529-0.119,0.922-0.592,0.922-1.157V7.21   c0-0.549-0.375-1.027-0.91-1.156c-5.619-1.348-11.559-1.348-17.178,0c-0.533,0.129-0.909,0.606-0.909,1.156v3.297   c0,0.564,0.395,1.038,0.923,1.157v1.638c0,0.048,0.004,0.097,0.01,0.143v0.323c0,0.073,0.012,0.145,0.031,0.211   c-0.066,2.04-0.391,8.178-1.963,12.176c-0.462,1.174-1.01,2.348-1.59,3.591c-1.902,4.072-4.056,8.688-4.047,15.286v44.444   c0,3.022,2.459,5.482,5.483,5.482h21.305c3.023,0,5.484-2.46,5.484-5.482V45.033C66.143,38.433,63.988,33.817,62.088,29.746z    M43.826,14.48h12.348c0.031,0.788,0.09,1.918,0.209,3.227H43.617C43.736,16.399,43.796,15.269,43.826,14.48z M43.798,12.938   v-2.185h12.403v2.185c-0.014,0.039-0.021,0.078-0.031,0.118H43.83C43.82,13.016,43.812,12.976,43.798,12.938z M63.762,89.476   c0,1.714-1.395,3.107-3.109,3.107H39.347c-1.715,0-3.108-1.394-3.108-3.107V45.03c-0.007-6.072,1.941-10.244,3.824-14.279   c0.597-1.277,1.16-2.485,1.648-3.728c0.932-2.369,1.458-5.328,1.757-7.892h13.063c0.297,2.564,0.824,5.522,1.756,7.892   c0.49,1.243,1.053,2.45,1.648,3.728c1.885,4.035,3.834,8.207,3.826,14.281V89.476z"></path><path d="M45.478,23.165c-0.385-0.083-0.764,0.162-0.848,0.547c-0.326,1.513-0.721,2.861-1.168,4   c-0.512,1.297-1.113,2.586-1.697,3.834c-0.166,0.357-0.012,0.781,0.346,0.946c0.097,0.046,0.199,0.068,0.301,0.068   c0.268,0,0.525-0.152,0.646-0.411c0.59-1.267,1.203-2.577,1.729-3.916c0.477-1.212,0.893-2.632,1.236-4.222   C46.107,23.627,45.863,23.249,45.478,23.165z"></path><path d="M41.461,33.904c-0.36-0.156-0.78,0.009-0.937,0.37c-0.242,0.559-0.452,1.073-0.645,1.571   c-1.222,3.171-1.765,6.005-1.761,9.187v43.295c0,0.395,0.319,0.713,0.713,0.713c0.393,0,0.712-0.318,0.712-0.713V45.031   c-0.004-2.999,0.51-5.675,1.666-8.674c0.185-0.48,0.389-0.976,0.622-1.516C41.988,34.479,41.822,34.059,41.461,33.904z"></path></g></svg>