<svg xmlns="http://www.w3.org/2000/svg" xmlns:xlink="http://www.w3.org/1999/xlink" version="1.1" x="0px" y="0px" viewBox="0 0 415.649 290.12625" style="enable-background:new 0 0 415.649 232.101;" xml:space="preserve"><g><path d="M138.316,201.638c1.667,1,5.167-8.468,5.735-11.852c2.265-13.482,15.293-22.746,29.124-31.621   c-18.2,0.117-19.858,10.709-24.559,8.057c-4.702-2.652-4.623-11.88-15.625-18.142c3.463,5.905,7.072,13.345,9.399,18.336   c4.235,2.102,6.518,6.993,5.175,11.699c-0.945,3.298-3.518,5.82-6.682,6.802c-0.575,1.867-1.04,3.388-1.233,4.054   C138.922,191.473,136.649,200.638,138.316,201.638z"/><path d="M398.649,184.971c-17,6.5-14.833,17-20.167,16.167c-5.333-0.833-8.5-9.5-21-11.5c8.833,7.167,19.542,18.167,19.542,18.167   v14.296h-46.766c-0.892-15.912,7.073-24.654,16.391-37.13c-17,6.5-14.833,17-20.167,16.167c-5.333-0.833-8.5-9.5-21-11.5   c8.833,7.167,19.542,18.167,19.542,18.167v14.296h-49.266c-0.892-15.912,7.073-24.654,16.391-37.13   c-17,6.5-14.833,17-20.167,16.167c-5.333-0.833-8.5-9.5-21-11.5c8.833,7.167,19.542,18.167,19.542,18.167v14.296h-46.766   c-0.892-15.912,7.073-24.654,16.391-37.13c-17,6.5-14.833,17-20.167,16.167c-5.333-0.833-8.5-9.5-21-11.5   c8.833,7.167,19.542,18.167,19.542,18.167v14.296H0v10h415.649v-10h-33.391C381.367,206.188,389.331,197.446,398.649,184.971z"/><path d="M87.867,71.515c-0.14,0.251-0.279,0.503-0.41,0.762c-5.611,11.084-1.171,24.619,9.912,30.228   c11.084,5.611,24.619,1.173,30.23-9.911c1.128-2.23,1.844-4.561,2.186-6.904c-7.346-1.872-14.425-4-20.023-5.865   C103.538,77.749,95.651,74.836,87.867,71.515z"/><path d="M140.146,167.677c-4.239-1.214-8.064-2.823-11.519-4.714l-4.412,15.711c3.557,1.715,7.392,3.203,11.533,4.384   c0.735,0.211,1.476,0.311,2.204,0.312c3.48,0,6.682-2.292,7.688-5.804C146.854,173.317,144.394,168.891,140.146,167.677z"/><path d="M99.963,128.023c-0.65-1.761-1.093-3.184-1.367-4.131c-0.135-0.476-0.23-0.828-0.286-1.048   c-0.028-0.109-0.045-0.188-0.056-0.226l-0.002-0.009c-0.971-4.311-5.251-7.019-9.56-6.048c-4.311,0.971-7.02,5.252-6.05,9.563   v-0.002c0.138,0.555,2.568,11.317,10.322,23.839c0.534,0.863,1.102,1.738,1.691,2.617l12.99-8.038   c0.214-0.133,0.434-0.254,0.654-0.375c-0.606-0.884-1.194-1.768-1.742-2.645C103.378,136.405,101.258,131.542,99.963,128.023z"/><path d="M89.58,202.154c-1.867,6.647,2.007,13.549,8.655,15.414c1.13,0.317,2.268,0.469,3.386,0.469   c5.461,0.001,10.479-3.606,12.028-9.123l13.666-48.668c1.396-4.977-0.389-10.26-4.52-13.368c-4.132-3.107-9.701-3.36-14.096-0.637   l-33.239,20.587l-0.56-2.024l18.054-11.172c-0.594-0.888-1.164-1.764-1.691-2.618c-7.132-11.52-9.876-21.546-10.546-24.346   l-0.004-0.014l-0.021-0.09c-0.586-2.606-0.123-5.284,1.307-7.544c1.428-2.257,3.651-3.823,6.255-4.409   c0.724-0.163,1.467-0.245,2.204-0.245c4.677,0,8.661,3.173,9.725,7.725l-0.009-0.035l0.03,0.114   c-0.006-0.026-0.015-0.052-0.021-0.079l0.039,0.152l0.028,0.107c0.051,0.207,0.142,0.543,0.271,0.993   c0.248,0.859,0.681,2.255,1.318,3.989c1.161,3.147,3.216,7.98,6.419,13.133c0.61,0.978,1.242,1.92,1.884,2.847   c1.638-0.623,3.377-0.952,5.142-0.952c3.162,0,6.174,1.01,8.713,2.92c0.206,0.155,0.4,0.32,0.596,0.484   c6.23-1.73,12.97-5.313,20.628-10.978c3.544-2.636,4.284-7.647,1.648-11.191c-2.638-3.547-7.648-4.283-11.194-1.647   c-9.703,7.251-16.223,9.113-19.54,9.053c-2.297-0.045-3.381-0.587-4.594-1.513c-1.772-1.358-3.433-4.41-4.301-7.319   c-0.136-0.436-0.252-0.856-0.359-1.265c-0.176-5.443-2.347-10.341-6.695-12.627c-7.786-4.094-20.91-2.529-29.276,10.499   c-11.402,17.98-15.939,30.389-18.703,52.583c-0.784,16.383,6.938,19.444,15.868,21.509c1.621,0.375,3.063,0.702,4.356,0.908   c3.124,0.743,6.531,0.292,9.477-1.532h-0.002l0.498-0.309l12.163-7.534L89.58,202.154z"/><path d="M122.882,40.451c-7.716-2.57-15.28-0.767-17.123,4.011c-24.692-4.695-45.532-0.238-47.145,4.604   c-1.922,5.77,21.262,18.691,51.782,28.86s56.822,13.735,58.745,7.966c1.612-4.842-12.39-20.906-34.963-31.961   C135.568,49.003,130.598,43.022,122.882,40.451z"/><path d="M322.626,54.178c-22.358-4.394-23.249-8.579-4.257-21.089c-22.212,4.896-24.542,1.469-11.61-17.221   C288.069,28.8,284.641,26.47,289.538,4.258C277.028,23.249,272.842,22.359,268.449,0c-4.393,22.359-8.579,23.249-21.088,4.258   c4.896,22.212,1.468,24.542-17.221,11.61c12.931,18.689,10.602,22.117-11.61,17.221c18.992,12.51,18.102,16.695-4.257,21.089   c22.359,4.393,23.249,8.578,4.257,21.088c22.212-4.896,24.541-1.469,11.61,17.221c18.689-12.932,22.118-10.602,17.221,11.61   c12.51-18.991,16.695-18.102,21.088,4.258c4.393-22.359,8.579-23.249,21.088-4.258c-4.897-22.212-1.468-24.542,17.221-11.61   c-12.931-18.689-10.602-22.117,11.61-17.221C299.377,62.756,300.268,58.57,322.626,54.178z M268.449,72.178   c-9.941,0-18-8.058-18-18c0-9.941,8.059-18,18-18c9.941,0,18,8.059,18,18C286.449,64.119,278.39,72.178,268.449,72.178z"/></g><text x="0" y="247.101" fill="#000000" font-size="5px" font-weight="bold" font-family="'Helvetica Neue', Helvetica, Arial-Unicode, Arial, Sans-serif">Created by Gan Khoon Lay</text><text x="0" y="252.101" fill="#000000" font-size="5px" font-weight="bold" font-family="'Helvetica Neue', Helvetica, Arial-Unicode, Arial, Sans-serif">from the Noun Project</text></svg>