<svg xmlns="http://www.w3.org/2000/svg" xmlns:xlink="http://www.w3.org/1999/xlink" version="1.1" x="0px" y="0px" viewBox="0 0 100 100" enable-background="new 0 0 100 100" xml:space="preserve"><g><path d="M50.244,6.354c-23.889,0-43.323,19.435-43.323,43.323S26.356,93,50.244,93s43.323-19.435,43.323-43.323   S74.133,6.354,50.244,6.354z M50.244,91.293c-22.947,0-41.616-18.669-41.616-41.616S27.297,8.06,50.244,8.06   c22.948,0,41.616,18.669,41.616,41.616S73.192,91.293,50.244,91.293z"></path><path d="M71.617,35.391H28.871c-0.352,0-0.637,0.285-0.637,0.637v27.46c0,0.352,0.285,0.637,0.637,0.637h42.746   c0.352,0,0.637-0.285,0.637-0.637v-27.46C72.254,35.676,71.969,35.391,71.617,35.391z M70.98,62.85H29.508V36.664H70.98V62.85z"></path><path d="M34.832,45.16l15.075,9.385c0.005,0.003,0.011,0.004,0.016,0.007c0.034,0.02,0.07,0.034,0.106,0.047   c0.017,0.006,0.033,0.015,0.05,0.02c0.049,0.013,0.1,0.02,0.151,0.021c0.004,0,0.008,0.002,0.012,0.002l0.001,0c0,0,0,0,0,0   c0.004,0,0.008-0.002,0.012-0.002c0.051-0.001,0.102-0.008,0.151-0.021c0.017-0.005,0.033-0.014,0.05-0.02   c0.037-0.013,0.073-0.027,0.106-0.047c0.005-0.003,0.011-0.004,0.016-0.007l15.075-9.385c0.299-0.186,0.39-0.579,0.204-0.877   c-0.186-0.298-0.578-0.39-0.877-0.204l-14.738,9.175l-14.738-9.175c-0.299-0.186-0.691-0.094-0.877,0.204   C34.443,44.581,34.534,44.974,34.832,45.16z"></path></g></svg>